# xmcd
#
# Track frame offsets: 
#        150
#        13470
#        30560
#        41582
#        54607
#        71172
#        82120
#        93225
#        111827
#        123862
#        137595
#        148567
#        160912
#
# Disc length: 2238 seconds
#
# Revision: 0
# Processed by: cddbd v1.4PL0 Copyright (c) Steve Scherf et al.
# Submitted via: ExactAudioCopy v0.90b3
#
DISCID=b408bc0d
DTITLE=Ric-O-chet - Carolina Memories
DYEAR=1900
DGENRE=Country
TTITLE0=Anger And Tears
TTITLE1=Orphan Train
TTITLE2=Warning Sign
TTITLE3=Carolina Memories
TTITLE4=Robin D
TTITLE5=Gathering In The Sky
TTITLE6=I'll Never Take His Place
TTITLE7=Over The Edge
TTITLE8=Greenville Trestle High
TTITLE9=I'll Take The Blame
TTITLE10=Let The Mermaids Flirt
TTITLE11=She Thinks I Still Care
TTITLE12=Better Father On
EXTD=
EXTT0=
EXTT1=
EXTT2=
EXTT3=
EXTT4=
EXTT5=
EXTT6=
EXTT7=
EXTT8=
EXTT9=
EXTT10=
EXTT11=
EXTT12=
PLAYORDER=
